<?xml version="1.0" standalone="no"?>
<!DOCTYPE svg PUBLIC "-//W3C//DTD SVG 20010904//EN"
 "http://www.w3.org/TR/2001/REC-SVG-20010904/DTD/svg10.dtd">
<svg version="1.0" xmlns="http://www.w3.org/2000/svg"
 width="512.000000pt" height="512.000000pt" viewBox="0 0 512.000000 512.000000"
 preserveAspectRatio="xMidYMid meet">

<g transform="translate(0.000000,512.000000) scale(0.100000,-0.100000)"
fill="#000000" stroke="none">
<path d="M2365 4953 c-467 -37 -890 -179 -1260 -420 -380 -248 -676 -581 -871
-976 -314 -640 -311 -1372 8 -2012 l60 -119 -22 -86 c-43 -163 -112 -346 -191
-511 -69 -143 -81 -175 -86 -235 -22 -267 204 -469 474 -425 238 38 597 140
797 226 75 33 93 37 115 28 14 -6 82 -34 151 -63 481 -199 1043 -251 1565
-145 308 63 649 202 906 369 384 252 679 581 874 978 211 429 278 879 204
1371 -19 127 -70 182 -168 182 -72 0 -121 -33 -146 -99 -16 -41 -16 -51 0
-147 123 -774 -230 -1547 -914 -2000 -690 -457 -1595 -514 -2344 -148 -124 61
-168 64 -257 19 -195 -99 -618 -228 -837 -256 -47 -6 -54 -4 -77 19 -14 15
-26 35 -26 47 0 11 20 61 45 110 93 185 172 400 230 630 19 74 35 151 35 170
0 20 -13 58 -31 90 -189 341 -279 668 -279 1007 2 994 754 1846 1805 2042 288
54 579 54 876 -1 131 -24 173 -20 220 19 89 75 73 209 -31 260 -114 56 -563
98 -825 76z"/>
<path d="M3802 4939 c-74 -24 -155 -86 -195 -151 -15 -25 -68 -150 -116 -278
l-89 -233 -233 -88 c-128 -49 -253 -101 -278 -116 -98 -61 -171 -195 -171
-313 0 -119 73 -252 172 -313 25 -16 150 -68 278 -116 l232 -87 88 -233 c49
-129 102 -254 117 -279 61 -98 194 -172 312 -172 98 0 211 50 275 120 48 54
58 74 157 334 l87 229 233 88 c128 49 253 101 278 116 98 61 171 195 171 313
0 119 -73 252 -172 313 -25 15 -150 68 -278 116 l-232 89 -89 232 c-48 128
-101 253 -116 278 -41 67 -120 127 -199 152 -82 25 -150 25 -232 -1z m150
-311 c9 -7 55 -114 101 -238 98 -263 113 -293 164 -341 50 -48 78 -62 342
-160 178 -66 226 -88 234 -106 23 -51 5 -63 -234 -152 -264 -99 -302 -117
-350 -168 -48 -50 -62 -78 -160 -342 -89 -239 -101 -257 -152 -234 -18 8 -40
56 -106 234 -98 264 -112 292 -160 342 -48 51 -86 69 -350 168 -239 89 -257
101 -234 152 8 18 56 40 234 106 264 98 292 112 342 160 51 48 66 78 164 341
46 124 92 231 101 238 8 6 23 12 32 12 9 0 24 -6 32 -12z"/>
<path d="M1285 2871 c-92 -24 -173 -90 -215 -176 -33 -69 -34 -199 -2 -265 35
-71 75 -114 144 -151 58 -31 70 -34 148 -33 72 0 93 4 136 26 75 40 107 70
145 140 31 58 34 70 34 148 0 78 -3 90 -34 148 -57 104 -144 160 -260 167 -36
2 -79 1 -96 -4z"/>
<path d="M2485 2871 c-92 -24 -173 -90 -215 -176 -33 -69 -34 -199 -2 -265 35
-71 75 -114 144 -151 58 -31 70 -34 148 -33 72 0 93 4 136 26 75 40 107 70
145 140 31 58 34 70 34 148 0 78 -3 90 -34 148 -57 104 -144 160 -260 167 -36
2 -79 1 -96 -4z"/>
</g>
</svg>
