<svg version="1.0" xmlns="http://www.w3.org/2000/svg" width="512.000000pt" height="512.000000pt" viewBox="0 0 512.000000 512.000000" preserveAspectRatio="xMidYMid meet" style="max-width: 100%; max-height: 100%; width: auto; height: auto; transform: scale(1);">

<g transform="translate(0.000000,512.000000) scale(0.100000,-0.100000)" fill="#4c4c4c" stroke="none" data-element-index="0" style="cursor: pointer; fill: rgb(76, 76, 76);">
<path d="M793 4865 c-333 -60 -620 -300 -733 -612 -62 -172 -61 -152 -58
-1334 3 -1067 3 -1074 25 -1150 100 -354 356 -609 699 -698 l69 -18 5 -356 c5
-339 6 -357 26 -383 49 -66 127 -90 194 -61 19 8 154 124 300 257 146 133 296
264 333 291 90 63 242 140 342 173 193 62 124 59 1270 65 1034 7 1051 7 1126
28 307 86 547 295 658 574 69 174 66 113 66 1156 0 935 0 942 -21 969 -39 53
-71 69 -134 69 -63 0 -95 -16 -134 -69 -21 -27 -21 -38 -26 -959 -5 -868 -7
-936 -24 -987 -69 -210 -227 -367 -436 -436 -51 -17 -127 -19 -1100 -25 -1021
-5 -1047 -6 -1145 -27 -210 -46 -402 -123 -562 -228 -104 -67 -151 -105 -298
-239 l-110 -100 -5 247 c-5 229 -6 249 -26 274 -40 54 -67 66 -165 75 -181 17
-301 71 -420 189 -88 88 -150 200 -174 315 -22 104 -22 2086 0 2190 46 220
217 405 445 482 52 17 134 18 1626 23 l1571 5 37 29 c90 68 86 190 -8 260 -27
21 -29 21 -1584 23 -1242 1 -1571 -1 -1629 -12z" data-element-index="1" style="cursor: pointer;"></path>
<path d="M4493 4865 c-47 -20 -74 -65 -119 -197 l-40 -122 -130 -43 c-105 -35
-135 -49 -161 -77 -59 -63 -56 -153 5 -214 30 -29 61 -44 161 -77 l125 -41 41
-125 c46 -140 85 -192 149 -205 110 -20 162 28 221 205 l41 125 130 43 c110
36 134 48 161 79 59 66 56 151 -5 212 -30 29 -61 44 -161 77 l-125 41 -40 121
c-23 67 -52 136 -64 153 -42 55 -121 75 -189 45z" data-element-index="2" style="cursor: pointer;"></path>
<path d="M3454 4386 c-58 -25 -77 -68 -189 -412 l-108 -331 -343 -112 c-316
-103 -345 -114 -373 -146 -57 -65 -54 -152 7 -213 34 -34 64 -46 373 -146
l336 -109 109 -336 c100 -308 112 -338 146 -373 64 -64 152 -64 216 0 34 35
46 65 146 373 l109 336 336 109 c309 100 339 112 373 146 64 64 64 152 0 216
-34 34 -64 46 -373 146 l-336 109 -108 331 c-67 207 -117 344 -133 365 -42 57
-121 76 -188 47z m114 -813 c57 -181 64 -188 245 -244 75 -24 137 -46 137 -49
0 -3 -62 -25 -137 -49 -181 -56 -188 -63 -245 -244 -23 -75 -45 -137 -48 -137
-3 0 -25 62 -48 137 -57 181 -64 187 -245 244 -75 24 -137 46 -137 49 0 3 62
25 137 49 181 57 188 63 245 244 23 75 45 137 48 137 3 0 25 -62 48 -137z" data-element-index="3" style="cursor: pointer;"></path>
<path d="M1055 3746 c-68 -29 -105 -106 -90 -183 9 -47 71 -110 117 -118 18
-3 299 -5 624 -3 l591 3 37 29 c90 68 86 190 -8 260 -27 21 -39 21 -634 23
-489 2 -613 0 -637 -11z" data-element-index="4" style="cursor: pointer;"></path>
<path d="M1055 3106 c-68 -29 -105 -106 -90 -183 9 -47 71 -110 117 -118 18
-3 299 -5 624 -3 l591 3 37 29 c90 68 86 190 -8 260 -27 21 -39 21 -634 23
-489 2 -613 0 -637 -11z" data-element-index="5" style="cursor: pointer;"></path>
<path d="M1055 2466 c-67 -29 -105 -106 -90 -183 9 -47 71 -110 117 -118 18
-3 479 -4 1024 -3 l991 3 37 29 c90 68 86 190 -8 260 -27 21 -35 21 -1034 23
-822 2 -1013 0 -1037 -11z" data-element-index="6" style="cursor: pointer;"></path>
</g>
</svg>